<?xml version="1.0" encoding="UTF-8" standalone="no"?>
<!-- Created with Inkscape (http://www.inkscape.org/) -->

<svg
   width="210mm"
   height="297mm"
   viewBox="0 0 210 297"
   version="1.1"
   id="svg1"
   xml:space="preserve"
   inkscape:version="1.4.2 (ebf0e940, 2025-05-08)"
   sodipodi:docname="energy.svg"
   xmlns:inkscape="http://www.inkscape.org/namespaces/inkscape"
   xmlns:sodipodi="http://sodipodi.sourceforge.net/DTD/sodipodi-0.dtd"
   xmlns="http://www.w3.org/2000/svg"
   xmlns:svg="http://www.w3.org/2000/svg"><sodipodi:namedview
     id="namedview1"
     pagecolor="#ffffff"
     bordercolor="#000000"
     borderopacity="0.25"
     inkscape:showpageshadow="2"
     inkscape:pageopacity="0.0"
     inkscape:pagecheckerboard="0"
     inkscape:deskcolor="#d1d1d1"
     inkscape:document-units="mm"
     inkscape:zoom="0.70822811"
     inkscape:cx="418.65043"
     inkscape:cy="560.55386"
     inkscape:window-width="1712"
     inkscape:window-height="965"
     inkscape:window-x="0"
     inkscape:window-y="39"
     inkscape:window-maximized="0"
     inkscape:current-layer="layer1" /><defs
     id="defs1" /><g
     inkscape:label="Слой 1"
     inkscape:groupmode="layer"
     id="layer1"><circle
       style="display:inline;fill:none;stroke:#000000;stroke-width:1.42435;stroke-dasharray:none;stroke-opacity:1"
       id="path2"
       cx="105.00094"
       cy="149.83115"
       r="39.287823"
       sodipodi:insensitive="true" /><path
       style="fill:#020202;stroke:none"
       d="m 95.889501,154.49293 c -1.606392,5.88514 -4.384738,11.66159 -6.538869,17.37264 -0.623128,1.65204 -2.552869,4.78025 -1.355643,6.45853 0.734166,1.02916 2.16707,1.01917 3.102059,0.30692 2.206164,-1.68058 4.144416,-3.9702 6.110378,-5.92668 6.928754,-6.89534 13.933524,-13.81368 21.086784,-20.4771 1.81732,-1.69287 3.62539,-3.41729 5.39151,-5.16307 0.71683,-0.70857 1.64361,-1.52157 1.5336,-2.63539 -0.0866,-0.87655 -0.75771,-1.7501 -1.65341,-1.89137 -3.03727,-0.47906 -6.50697,-0.0256 -9.5849,-0.0256 1.90446,-5.85294 3.90429,-11.7274 6.05953,-17.49245 0.61067,-1.63349 2.42702,-4.88791 1.0819,-6.45724 -0.76391,-0.89126 -2.05977,-0.89353 -2.94804,-0.20505 -2.18892,1.69658 -4.15022,3.98327 -6.11038,5.94342 -6.9299,6.9299 -13.919448,13.79964 -20.84716,20.72736 l -4.912264,4.91226 c -0.711099,0.71137 -1.655438,1.51981 -1.519737,2.63585 0.116392,0.95723 0.784561,1.74968 1.759359,1.89183 2.983594,0.43511 6.327645,0.0251 9.345283,0.0251 M 114.46025,128.0146 c -0.21803,1.45561 -0.96285,2.92055 -1.43737,4.31321 -0.99518,2.92079 -1.99797,5.83936 -3.03253,8.74622 -0.56464,1.58649 -1.82443,3.78342 -0.20089,5.11861 0.74922,0.61615 1.72771,0.51252 2.634,0.51252 h 5.39151 l -3.47453,3.47462 -7.90755,7.67255 -8.147162,7.91356 -3.234906,3.10437 c 1.036076,-4.37209 3.25612,-8.73192 4.843206,-12.93962 0.581242,-1.54099 1.936052,-3.70835 0.392442,-5.0881 -0.729552,-0.6521 -1.693159,-0.54303 -2.599799,-0.54303 h -5.631132 l 3.354717,-3.47453 7.188684,-7.06896 7.78773,-7.78765 z"
       id="path3" /></g></svg>
