<?xml version="1.0" encoding="UTF-8" standalone="no"?>
<!-- Created with Inkscape (http://www.inkscape.org/) -->

<svg
   width="210mm"
   height="297mm"
   viewBox="0 0 210 297"
   version="1.1"
   id="svg1"
   xml:space="preserve"
   inkscape:version="1.4.2 (ebf0e940, 2025-05-08)"
   sodipodi:docname="chemistry.svg"
   xmlns:inkscape="http://www.inkscape.org/namespaces/inkscape"
   xmlns:sodipodi="http://sodipodi.sourceforge.net/DTD/sodipodi-0.dtd"
   xmlns="http://www.w3.org/2000/svg"
   xmlns:svg="http://www.w3.org/2000/svg"><sodipodi:namedview
     id="namedview1"
     pagecolor="#ffffff"
     bordercolor="#000000"
     borderopacity="0.25"
     inkscape:showpageshadow="2"
     inkscape:pageopacity="0.0"
     inkscape:pagecheckerboard="0"
     inkscape:deskcolor="#d1d1d1"
     inkscape:document-units="mm"
     inkscape:zoom="0.70822811"
     inkscape:cx="418.65043"
     inkscape:cy="560.55386"
     inkscape:window-width="1712"
     inkscape:window-height="965"
     inkscape:window-x="0"
     inkscape:window-y="39"
     inkscape:window-maximized="1"
     inkscape:current-layer="layer1" /><defs
     id="defs1" /><g
     inkscape:label="Слой 1"
     inkscape:groupmode="layer"
     id="layer1"><path
       style="fill:#040404;stroke:none;stroke-width:0.408424"
       d="m 98.690408,123.50284 v 13.97821 3.87089 c 0,0.57344 0.119,1.29848 -0.14153,1.82792 -1.240691,2.52127 -3.513065,4.94068 -5.192548,7.20415 -3.161196,4.2604 -6.23066,8.59583 -9.327223,12.90296 -2.236056,3.1102 -5.300236,6.26309 -3.470913,10.32237 1.941676,4.30858 6.963975,3.54831 10.855865,3.54831 h 29.214001 c 3.3585,0 6.94717,0.14653 8.70879,-3.33326 0.28095,-0.55497 0.50878,-1.2122 0.5984,-1.82792 0.54303,-3.73092 -2.45067,-6.5393 -4.45042,-9.35465 -3.20013,-4.50527 -6.47397,-8.96168 -9.71236,-13.44058 -1.40217,-1.93928 -3.23414,-3.89897 -4.3301,-6.02138 -0.27306,-0.5288 -0.1541,-1.25077 -0.1541,-1.82792 v -3.87089 -13.97821 c 1.08793,0 2.44463,0.22245 3.36197,-0.49008 1.31086,-1.01818 0.82147,-3.17307 -0.75552,-3.60357 -1.37622,-0.3757 -3.13894,-0.0998 -4.56129,-0.0998 h -9.339792 c -1.29294,0 -3.308883,-0.37352 -4.452275,0.32315 -1.280789,0.78038 -1.285746,2.74681 0.0012,3.52359 0.901468,0.54411 2.138985,0.34671 3.147875,0.34671 m 8.362372,0 v 15.05345 c 0,1.72679 -0.55143,4.59873 0.3372,6.12891 1.05192,1.81136 2.49789,3.45273 3.71142,5.16119 3.37846,4.75635 6.92117,9.40273 10.24983,14.19325 1.05976,1.52517 2.17703,3.02019 3.27869,4.51603 0.58851,0.79911 1.32044,1.63019 1.19085,2.68813 -0.0917,0.74879 -0.63399,1.48067 -1.39163,1.66306 -2.21308,0.53277 -5.10506,0.0573 -7.38496,0.0573 H 92.282879 86.852767 c -1.11737,0 -2.125149,-0.10143 -2.570671,-1.2903 -0.406014,-1.08345 0.222393,-1.94765 0.833037,-2.79564 1.087884,-1.51073 2.210376,-2.99832 3.288401,-4.51603 3.200593,-4.50598 6.483534,-8.95488 9.712274,-13.44059 1.48113,-2.05773 3.354012,-4.1027 4.533892,-6.34395 0.83256,-1.5815 0.2762,-4.48055 0.2762,-6.23643 v -14.8384 h 4.12689 m -16.61615,45.37541 h 29.1054 l -2.06076,-3.11822 -5.36123,-7.41919 -1.71585,-2.36554 -0.88616,-1.00614 -1.81364,0.31569 -4.5613,1.8397 -3.366672,1.04297 -1.94503,0.38173 -2.004956,2.58722 -3.745519,5.1612 -1.644283,2.58058 m 18.57098,-8.24289 c 2.65473,-0.26044 2.99036,3.86018 0.32581,4.10005 -2.68582,0.24176 -3.01037,-3.83668 -0.32581,-4.10005 m -10.208612,2.06836 c 2.679432,0.0223 2.555432,4.20201 -0.1086,4.11721 -2.692743,-0.0857 -2.593567,-4.13959 0.1086,-4.11721 z"
       id="path1" /><circle
       style="display:inline;fill:none;stroke:#000000;stroke-width:1.42435;stroke-dasharray:none;stroke-opacity:1"
       id="path2"
       cx="105.00094"
       cy="149.83115"
       r="39.287823"
       sodipodi:insensitive="true" /></g></svg>
