<?xml version="1.0" encoding="UTF-8" standalone="no"?>
<!-- Created with Inkscape (http://www.inkscape.org/) -->

<svg
   width="210mm"
   height="297mm"
   viewBox="0 0 210 297"
   version="1.1"
   id="svg1"
   xml:space="preserve"
   inkscape:version="1.4.2 (ebf0e940, 2025-05-08)"
   sodipodi:docname="energy.svg"
   xmlns:inkscape="http://www.inkscape.org/namespaces/inkscape"
   xmlns:sodipodi="http://sodipodi.sourceforge.net/DTD/sodipodi-0.dtd"
   xmlns="http://www.w3.org/2000/svg"
   xmlns:svg="http://www.w3.org/2000/svg"><sodipodi:namedview
     id="namedview1"
     pagecolor="#ffffff"
     bordercolor="#000000"
     borderopacity="0.25"
     inkscape:showpageshadow="2"
     inkscape:pageopacity="0.0"
     inkscape:pagecheckerboard="0"
     inkscape:deskcolor="#d1d1d1"
     inkscape:document-units="mm"
     inkscape:zoom="0.70822811"
     inkscape:cx="418.65043"
     inkscape:cy="560.55386"
     inkscape:window-width="1712"
     inkscape:window-height="965"
     inkscape:window-x="0"
     inkscape:window-y="39"
     inkscape:window-maximized="0"
     inkscape:current-layer="layer1" /><defs
     id="defs1" /><g
     inkscape:label="Слой 1"
     inkscape:groupmode="layer"
     id="layer1"><circle
       style="display:inline;fill:none;stroke:#000000;stroke-width:1.42435;stroke-dasharray:none;stroke-opacity:1"
       id="path2"
       cx="105.00094"
       cy="149.83115"
       r="39.287823"
       sodipodi:insensitive="true" /><path
       style="fill:#020202;stroke:none;stroke-width:0.376909"
       d="m 114.50247,123.55928 c -2.16762,0.28461 -4.1834,0.61383 -6.15438,1.65053 -3.2601,1.71475 -5.73369,4.82321 -8.30353,7.39305 l -10.550365,10.55037 c -3.309051,3.30905 -7.053437,6.32703 -8.689006,10.84342 -2.414944,6.66855 0.806942,14.38581 6.930612,17.74887 2.677804,1.47063 5.779129,1.9673 8.791971,1.67458 5.252098,-0.51028 8.588768,-4.07852 12.113388,-7.60312 l 13.38333,-13.38334 c 2.93825,-2.93825 6.11441,-5.65449 7.35384,-9.76886 2.39635,-7.95481 -2.35445,-16.64004 -10.47987,-18.67088 -1.37419,-0.34346 -2.98096,-0.62041 -4.396,-0.43462 m -1.36763,31.41426 h -0.0977 l -14.457917,-14.4579 c 1.217886,-1.72894 3.095297,-3.19299 4.591357,-4.68906 2.90748,-2.90747 5.67224,-6.56724 9.86656,-7.53302 7.35164,-1.69279 14.03263,5.37917 12.12468,12.61283 -0.77102,2.92316 -2.82347,4.86362 -4.89573,6.93588 l -7.13127,7.13127 M 95.160133,144.38458 c 2.093723,-0.0148 0.659205,2.11467 0,2.77388 l -4.493674,4.49367 c -1.06993,1.06993 -2.243794,2.14617 -2.933597,3.51679 -0.65679,1.30502 -0.476021,2.72983 -0.988419,4.0038 -0.180737,0.44936 -0.582451,0.6899 -1.060101,0.67914 -0.904702,-0.0204 -1.143588,-0.79121 -1.089725,-1.55691 0.08604,-1.22313 0.278368,-2.36928 0.743217,-3.51679 1.301576,-3.21304 4.500278,-5.61909 6.891641,-8.01046 0.708425,-0.70843 1.833145,-2.37535 2.930658,-2.38312 z"
       id="path3" /></g></svg>
