<?xml version="1.0" encoding="UTF-8" standalone="no"?>
<!-- Created with Inkscape (http://www.inkscape.org/) -->

<svg
   width="210mm"
   height="297mm"
   viewBox="0 0 210 297"
   version="1.1"
   id="svg1"
   xml:space="preserve"
   inkscape:version="1.4.2 (ebf0e940, 2025-05-08)"
   sodipodi:docname="TBO.svg"
   xmlns:inkscape="http://www.inkscape.org/namespaces/inkscape"
   xmlns:sodipodi="http://sodipodi.sourceforge.net/DTD/sodipodi-0.dtd"
   xmlns="http://www.w3.org/2000/svg"
   xmlns:svg="http://www.w3.org/2000/svg"><sodipodi:namedview
     id="namedview1"
     pagecolor="#ffffff"
     bordercolor="#000000"
     borderopacity="0.25"
     inkscape:showpageshadow="2"
     inkscape:pageopacity="0.0"
     inkscape:pagecheckerboard="0"
     inkscape:deskcolor="#d1d1d1"
     inkscape:document-units="mm"
     inkscape:zoom="0.70822811"
     inkscape:cx="386.17501"
     inkscape:cy="631.15258"
     inkscape:window-width="1712"
     inkscape:window-height="965"
     inkscape:window-x="0"
     inkscape:window-y="39"
     inkscape:window-maximized="0"
     inkscape:current-layer="layer1" /><defs
     id="defs1" /><g
     inkscape:label="Слой 1"
     inkscape:groupmode="layer"
     id="layer1"><circle
       style="display:inline;fill:none;stroke:#000000;stroke-width:1.42435;stroke-dasharray:none;stroke-opacity:1"
       id="path2"
       cx="105.00094"
       cy="149.83115"
       r="39.287823"
       sodipodi:insensitive="true" /><path
       style="fill:#040404;stroke:none;stroke-width:1.14987"
       d="m 94.500252,127.79246 c -2.348855,0 -6.182487,-0.72305 -8.149334,0.82233 -0.98547,0.77429 -2.157299,3.69262 -0.576784,4.47033 2.018913,0.99344 6.181705,0.18358 8.421875,0.18358 H 114.5798 c 2.17853,0 8.1337,1.05168 9.85619,-0.31268 1.24522,-0.98634 0.17812,-3.57732 -0.79415,-4.34123 -1.86336,-1.46406 -5.32118,-0.82233 -7.54087,-0.82233 -0.15026,-7.24192 -7.23004,-6.08471 -12.47365,-6.08471 -2.3804,0 -5.250392,-0.43471 -7.273022,1.11013 -1.645104,1.25651 -1.848756,3.05865 -1.854046,4.97458 m 18.558368,0 H 97.238368 c 0.23962,-0.95882 0.32236,-2.1745 1.26202,-2.72967 0.90886,-0.53697 2.291072,-0.31268 3.301522,-0.31268 2.62091,0 8.00814,-1.02665 10.27451,0.3587 0.95674,0.58481 0.95818,1.69057 0.9822,2.68365 m -25.206482,8.13595 c -1.748901,0.79115 -0.730786,3.81268 -0.665508,5.25042 0.233883,5.15219 0.537654,10.39359 1.142047,15.51601 0.534665,4.5313 -0.81046,12.5696 1.821895,16.42401 1.553964,2.27538 4.032823,2.13435 6.479326,2.13435 H 111.2332 c 2.07629,0 4.76944,0.4443 6.69295,-0.47841 3.06311,-1.46938 2.97288,-5.41391 3.04259,-8.34442 0.169,-7.10365 1.21081,-14.19604 1.53315,-21.29649 0.0953,-2.09907 1.51879,-6.89631 0.28382,-8.69089 -1.11807,-1.62468 -6.43317,-0.7404 -8.20591,-0.7404 H 95.71719 c -2.208111,0 -5.833675,-0.69312 -7.865052,0.22582 m 7.295788,3.95789 c 2.174532,-0.57855 1.459202,4.74462 1.486432,5.85606 0.14654,5.98125 0.60169,11.95591 0.60401,17.94989 5.1e-4,1.30599 1.07583,5.46577 -0.9127,5.72695 -1.835224,0.24105 -1.521115,-4.90701 -1.521184,-6.03119 -3.8e-4,-5.98986 -0.579406,-11.972 -0.608233,-17.94989 -0.0057,-1.22408 -0.640718,-5.12817 0.951675,-5.55182 m 9.455714,-0.0273 c 2.14883,-0.78139 1.45756,4.80348 1.45756,5.8833 v 17.94988 c 0,1.18577 0.62602,5.06937 -0.70049,5.65653 -2.27069,1.00509 -1.73339,-4.6663 -1.73339,-5.65653 V 145.7423 c 0,-1.35784 -0.67045,-5.28448 0.97632,-5.8833 m 9.71113,0.0273 c 2.14467,-0.57059 1.44039,3.92625 1.30684,4.94335 -0.77396,5.89453 -0.42378,12.30408 -0.43335,18.25413 -0.002,1.18586 0.2395,6.12553 -1.25614,6.37063 -2.37864,0.38983 -1.1835,-4.91974 -1.17797,-6.0664 0.0288,-5.95024 -0.0747,-12.01515 0.3317,-17.94989 0.0815,-1.1902 -0.18387,-5.17594 1.22892,-5.55182 z"
       id="path3" /></g></svg>
