<?xml version="1.0" encoding="UTF-8" standalone="no"?>
<!-- Created with Inkscape (http://www.inkscape.org/) -->

<svg
   width="210mm"
   height="297mm"
   viewBox="0 0 210 297"
   version="1.1"
   id="svg1"
   xml:space="preserve"
   inkscape:version="1.4.2 (ebf0e940, 2025-05-08)"
   sodipodi:docname="stroy.svg"
   xmlns:inkscape="http://www.inkscape.org/namespaces/inkscape"
   xmlns:sodipodi="http://sodipodi.sourceforge.net/DTD/sodipodi-0.dtd"
   xmlns="http://www.w3.org/2000/svg"
   xmlns:svg="http://www.w3.org/2000/svg"><sodipodi:namedview
     id="namedview1"
     pagecolor="#ffffff"
     bordercolor="#000000"
     borderopacity="0.25"
     inkscape:showpageshadow="2"
     inkscape:pageopacity="0.0"
     inkscape:pagecheckerboard="0"
     inkscape:deskcolor="#d1d1d1"
     inkscape:document-units="mm"
     inkscape:zoom="0.70822811"
     inkscape:cx="332.51998"
     inkscape:cy="577.49755"
     inkscape:window-width="1712"
     inkscape:window-height="965"
     inkscape:window-x="0"
     inkscape:window-y="39"
     inkscape:window-maximized="0"
     inkscape:current-layer="layer1" /><defs
     id="defs1" /><g
     inkscape:label="Слой 1"
     inkscape:groupmode="layer"
     id="layer1"><circle
       style="display:inline;fill:none;stroke:#000000;stroke-width:1.42435;stroke-dasharray:none;stroke-opacity:1"
       id="path2"
       cx="105.00094"
       cy="149.83115"
       r="39.287823"
       sodipodi:insensitive="true" /><path
       d="m 106.55155,126.7942 c -1.47355,0.10949 -2.83767,0.33223 -4.29949,0.71136 -0.28924,0.0743 -0.57458,0.14465 -0.63321,0.15635 -0.0624,0.008 -0.10948,0.0313 -0.10948,0.0469 0,0.0586 0.29315,0.0665 0.48857,0.0156 0.43387,-0.10949 1.12179,-0.14851 1.68853,-0.0978 2.04031,0.18761 4.25259,1.06314 6.117,2.42725 0.58239,0.42212 1.51264,1.3641 1.84096,1.8605 0.42213,0.63711 0.61757,1.1296 0.69182,1.75498 0.0665,0.56284 -0.0196,0.99279 -0.32832,1.62208 l -0.19933,0.41041 v 0.44948 c 0,0.26579 0.0234,0.53157 0.0547,0.64493 0.0626,0.22278 0.25406,0.62929 0.34787,0.73481 0.0586,0.0665 0.0509,0.0782 -0.0742,0.19935 -0.0743,0.0743 -1.93868,1.78623 -4.14315,3.80699 l -4.01415,3.67411 -3.04092,-2.63831 c -1.676795,-1.45011 -3.095635,-2.68132 -3.154265,-2.73213 l -0.10948,-0.0938 0.17587,-0.71138 c 0.55894,-2.24745 1.50482,-6.0779 1.51656,-6.13653 0.008,-0.0507 -0.2658,-0.23062 -1.12179,-0.73873 -3.9477,-2.34128 -7.10978,-4.22914 -7.69998,-4.60437 -0.25797,-0.16025 -0.48858,-0.29705 -0.51593,-0.30095 -0.0352,-0.008 -1.40712,1.22729 -2.481979,2.23572 l -0.261891,0.24625 2.05985,1.88786 c 2.61097,2.39207 3.0331,2.77903 3.2598,2.98619 l 0.17979,0.16807 -0.23452,0.75437 c -0.12892,0.41431 -0.26578,0.85989 -0.30487,0.98887 -0.14465,0.47296 -0.46512,1.48919 -0.4964,1.57909 -0.0352,0.0899 -0.17589,0.12892 -1.88785,0.57456 -1.77062,0.46123 -1.85661,0.48076 -1.93087,0.41433 -0.0392,-0.0352 -1.282024,-1.16868 -2.751671,-2.52107 l -2.677403,-2.4507 -0.101623,0.0899 c -1.473564,1.34066 -2.384269,2.18882 -2.399905,2.23183 -0.01234,0.0313 0.570661,0.8169 1.446191,1.94257 1.508739,1.94259 2.571879,3.32625 4.033707,5.26102 0.461221,0.60974 0.859894,1.10613 0.891167,1.10613 0.05074,0 0.308771,-0.043 1.282027,-0.21497 0.19542,-0.0351 0.55112,-0.0978 0.79344,-0.14079 0.23844,-0.0392 0.63711,-0.10948 0.87945,-0.15235 0.23842,-0.0392 0.64101,-0.10949 0.88725,-0.15252 0.24625,-0.043 0.65275,-0.11334 0.89898,-0.15635 0.24626,-0.043 0.65275,-0.11334 0.89899,-0.15633 0.24625,-0.043 0.66056,-0.1172 0.91852,-0.16026 0.25798,-0.0469 0.55894,-0.0978 0.66447,-0.11719 l 0.19544,-0.0313 0.48858,0.47686 c 0.48466,0.47684 3.7171,3.61938 3.99852,3.88907 l 0.14464,0.14465 -1.70807,1.50092 c -0.94197,0.82862 -2.82593,2.48588 -4.19394,3.68973 -1.36412,1.19995 -3.25588,2.86111 -4.19786,3.69365 -3.490402,3.06827 -4.795895,4.2135 -5.675327,4.99132 -0.500312,0.43777 -1.00451,0.90289 -1.121769,1.03187 -0.465137,0.50421 -0.609754,1.07097 -0.402591,1.61426 0.113343,0.30489 0.254058,0.52767 0.539388,0.85599 0.23452,0.2697 3.525577,3.29106 3.853901,3.53732 0.273611,0.20714 0.754369,0.44558 1.141323,0.56674 0.238421,0.0743 0.379135,0.0899 0.762172,0.0899 0.543303,0 0.766093,-0.0547 1.149143,-0.28143 0.24624,-0.1485 0.5863,-0.47294 5.69095,-5.40561 0.88335,-0.85209 1.91133,-1.84488 2.28654,-2.20838 0.66447,-0.64101 1.14133,-1.09833 4.592645,-4.43628 2.45852,-2.38036 3.37314,-3.25199 3.4005,-3.24807 0.0196,0 3.18553,3.07608 5.53071,5.37826 0.48466,0.47294 1.93476,1.89178 3.22461,3.14644 1.28985,1.25857 3.07609,2.99791 3.96725,3.86954 2.76339,2.69304 2.90411,2.82984 3.16598,3.01746 0.52767,0.37132 0.94198,0.57457 1.52436,0.73482 0.43387,0.12121 1.34067,0.13678 1.79016,0.0273 0.9967,-0.23842 1.84878,-0.80126 2.47415,-1.6299 0.20717,-0.26969 0.51595,-0.9146 0.59802,-1.25075 0.27751,-1.09441 -0.0625,-2.19664 -0.94198,-3.05263 -0.25406,-0.25016 -14.04367,-12.22619 -17.0494,-14.80978 -0.51595,-0.44167 -0.93416,-0.82081 -0.93416,-0.84036 0,-0.0234 1.07877,-1.02405 2.39207,-2.2279 1.3133,-1.20387 3.15034,-2.88457 4.08452,-3.74056 l 1.69243,-1.55173 0.30487,0.21498 c 0.35568,0.24624 0.76999,0.44948 1.1335,0.54721 0.38304,0.10547 1.2234,0.0978 1.75497,-0.0156 0.49639,-0.10548 0.79346,-0.10949 1.19213,-0.008 0.75827,0.19151 1.32893,0.64491 2.47807,1.96603 l 0.46903,0.53939 -0.38304,0.37133 c -0.30879,0.30095 -0.40259,0.42213 -0.51203,0.65273 -0.12506,0.26187 -0.13293,0.30878 -0.13293,0.67228 0,0.33224 0.0156,0.42995 0.10949,0.66447 0.20716,0.52767 0.64101,0.98497 1.18041,1.23513 0.37132,0.17589 0.61756,0.2306 1.03969,0.2306 0.43386,0 0.75045,-0.0861 1.06705,-0.28923 0.19935,-0.12892 3.48649,-3.10735 3.80309,-3.44741 0.51594,-0.55111 0.58238,-1.39146 0.16807,-2.09111 -0.20716,-0.35177 -0.62929,-0.73873 -0.98497,-0.91072 -0.40649,-0.19151 -0.5863,-0.23452 -1.02796,-0.23452 -0.40259,0 -0.64101,0.0547 -0.97325,0.21889 l -0.14851,0.0743 -0.0978,-0.0899 c -0.19543,-0.17589 -0.76609,-0.87945 -0.99671,-1.22341 -0.12892,-0.19542 -0.42603,-0.73091 -0.65665,-1.19213 -0.48858,-0.97715 -0.58628,-1.15304 -0.9107,-1.60253 -0.39086,-0.54722 -1.26249,-1.55173 -1.6729,-1.93477 -0.44558,-0.41041 -1.98558,-1.8527 -2.32172,-2.16928 -0.51203,-0.48468 -3.24806,-3.04092 -3.47867,-3.24807 -0.39477,-0.36351 -0.9029,-0.75047 -1.44229,-1.11005 -1.64162,-1.09051 -3.36532,-1.71198 -5.55415,-1.99731 -0.4534,-0.0586 -2.41552,-0.10548 -2.91192,-0.0703 z m 17.0455,38.36313 c 0.35178,0.0978 0.70746,0.34788 0.91462,0.62929 0.2306,0.30879 0.30877,0.55894 0.30877,0.96934 0,0.30097 -0.0123,0.3596 -0.14465,0.62929 -0.24623,0.51595 -0.67618,0.83254 -1.30937,0.96543 -0.40259,0.082 -0.79737,0.0273 -1.19996,-0.16807 -0.34006,-0.16417 -0.46904,-0.29315 -0.57066,-0.5863 -0.23842,-0.6801 -0.0665,-1.62598 0.39087,-2.13801 0.19543,-0.22278 0.4104,-0.32832 0.74654,-0.37523 0.31268,-0.043 0.52767,-0.0234 0.86381,0.0743 z"
       id="path1"
       style="fill:#000000;stroke:none;stroke-width:0.00390863" /></g></svg>
