<?xml version="1.0" encoding="UTF-8" standalone="no"?>
<!-- Created with Inkscape (http://www.inkscape.org/) -->

<svg
   width="210mm"
   height="297mm"
   viewBox="0 0 210 297"
   version="1.1"
   id="svg1"
   xml:space="preserve"
   inkscape:version="1.4.2 (ebf0e940, 2025-05-08)"
   sodipodi:docname="energy.svg"
   xmlns:inkscape="http://www.inkscape.org/namespaces/inkscape"
   xmlns:sodipodi="http://sodipodi.sourceforge.net/DTD/sodipodi-0.dtd"
   xmlns="http://www.w3.org/2000/svg"
   xmlns:svg="http://www.w3.org/2000/svg"><sodipodi:namedview
     id="namedview1"
     pagecolor="#ffffff"
     bordercolor="#000000"
     borderopacity="0.25"
     inkscape:showpageshadow="2"
     inkscape:pageopacity="0.0"
     inkscape:pagecheckerboard="0"
     inkscape:deskcolor="#d1d1d1"
     inkscape:document-units="mm"
     inkscape:zoom="0.70822811"
     inkscape:cx="418.65043"
     inkscape:cy="560.55386"
     inkscape:window-width="1712"
     inkscape:window-height="965"
     inkscape:window-x="0"
     inkscape:window-y="39"
     inkscape:window-maximized="0"
     inkscape:current-layer="layer1" /><defs
     id="defs1" /><g
     inkscape:label="Слой 1"
     inkscape:groupmode="layer"
     id="layer1"><circle
       style="display:inline;fill:none;stroke:#000000;stroke-width:1.42435;stroke-dasharray:none;stroke-opacity:1"
       id="path2"
       cx="105.00094"
       cy="149.83115"
       r="39.287823"
       sodipodi:insensitive="true" /><path
       style="fill:#050505;stroke:none;stroke-width:0.517805"
       d="m 99.509548,136.96877 c -6.264831,0 -15.227163,-1.78572 -18.15928,5.48011 -0.373477,0.92548 -0.585222,2.0165 -0.608054,3.01406 -0.03185,1.39086 0.381085,2.67352 0.820007,3.97307 -3.206591,0 -6.242967,-0.14595 -8.768059,2.2044 -4.612762,4.29358 -3.387641,12.45702 2.739946,14.68866 2.025423,0.73766 4.180471,0.64326 6.302115,0.64326 h 8.76816 31.099577 c 4.70508,0 11.5715,1.26459 15.34428,-2.20483 4.09112,-3.76217 3.99099,-10.5002 -0.68501,-13.79581 -1.90293,-1.34118 -3.91375,-1.53568 -6.16512,-1.53568 0.72838,-1.28138 0.82433,-2.66809 0.82202,-4.11008 -0.002,-1.20918 -0.27468,-2.33193 -0.79199,-3.42505 -2.87136,-6.06739 -9.68675,-4.93211 -15.2373,-4.93211 -1.22621,0 -3.09451,0.35222 -4.24508,-0.0826 -0.69158,-0.26139 -1.23549,-1.15683 -1.70418,-1.69836 -1.08793,-1.25704 -2.22975,-2.46589 -3.34366,-3.69907 -0.67316,-0.74523 -1.27392,-1.57219 -2.3523,-1.673 -2.14954,-0.20097 -5.774837,1.9809 -5.586236,4.41305 0.08369,1.07935 1.135789,1.92483 1.750164,2.74004 m 3.014052,-4.93209 c -0.54185,0.75285 -1.2902,1.27918 -2.19204,1.50703 0.54851,-0.74309 1.32655,-1.20697 2.19204,-1.50703 m 2.05504,1.37003 3.83607,4.52109 c -2.68686,0.52104 -5.81291,0.39651 -7.12413,-2.46605 1.1073,-0.32572 2.20576,-1.12173 2.87705,-2.05504 h 0.41101 m 11.91922,5.61711 c -1.78402,2.54258 -3.20916,4.52968 -2.85326,7.80914 0.0977,0.90037 0.50936,1.72054 0.66122,2.60305 H 88.412344 c -1.061453,0 -3.411904,0.44304 -4.311563,-0.14081 -0.792683,-0.51443 -1.64515,-3.00739 -0.73723,-3.64695 2.641881,-1.86102 6.704454,-1.02114 9.569877,-0.30497 4.81344,1.20303 9.667952,2.68209 14.385262,0.29006 1.35643,-0.68782 3.73447,-1.97411 4.32763,-3.45846 0.35524,-0.88896 -0.69272,-1.57807 -1.45057,-1.1621 -2.45884,1.34957 -3.8773,3.24068 -6.85013,3.70499 -4.113372,0.64243 -8.090899,-1.22028 -12.056223,-1.93675 -2.837591,-0.5127 -5.041068,-0.056 -7.809144,0.35287 1.567395,-5.32652 8.981035,-4.11007 13.152243,-4.11007 1.481324,0 3.203497,-0.24362 4.658084,0.0377 1.82553,0.35295 3.2096,1.40469 5.2061,1.32689 1.66143,-0.0647 2.74989,-0.96646 4.24707,-1.3215 1.73318,-0.41102 3.97126,-0.043 5.75411,-0.043 m 5.6171,0.0445 c 4.36546,-0.32559 7.54059,4.13021 6.62,8.17565 -0.65707,2.88743 -3.30905,4.89109 -6.20899,5.05629 -4.64288,0.26452 -7.94389,-4.66319 -6.42675,-8.89236 0.93864,-2.61658 3.32093,-4.1386 6.01574,-4.33958 m -0.82201,2.35547 c -5.85018,1.24813 -3.12459,10.37282 2.60305,8.32735 1.37801,-0.49213 2.4523,-1.73617 2.69544,-3.19218 0.12961,-0.77616 0.0909,-1.84667 -0.91483,-1.89711 -1.11841,-0.0561 -1.02836,1.00656 -1.34962,1.76011 -0.49397,1.15862 -1.90575,1.86158 -3.03394,1.13334 -1.49253,-0.96344 -1.49182,-2.81015 0,-3.7737 0.56292,-0.3636 1.41177,-0.23593 1.83527,-0.805 0.98445,-1.32288 -0.9187,-1.74838 -1.83537,-1.55281 m -13.83726,10.06726 c -0.50455,1.08223 -1.48123,1.90687 -2.01951,3.01406 -0.52148,1.07261 -0.41548,2.7599 -1.07711,3.67379 -0.45925,0.63437 -1.41411,1.04128 -2.10947,1.35249 -1.60916,0.72014 -3.342419,0.74784 -5.069095,0.72728 -0.795328,-0.01 -1.691301,-0.34231 -2.253141,0.42646 -0.991596,1.35679 1.437821,1.72504 2.253141,1.76072 3.023315,0.13244 5.077135,-0.91844 7.809145,-1.91264 l 2.46604,4.24709 h -9.727173 c -1.388399,0 -3.178699,0.3014 -4.521082,-0.0594 -1.226235,-0.32951 -2.434107,-1.65934 -3.562068,-2.28867 -2.137933,-1.19283 -4.577913,-2.01176 -6.987129,-2.43559 -2.237482,-0.39364 -4.444247,-0.5642 -6.713124,-0.55954 -0.712883,0.001 -2.106891,0.30667 -1.613479,1.36401 0.54042,1.15805 3.410078,0.78611 4.490532,0.83342 3.507492,0.15359 7.457634,1.06016 10.412193,3.00867 v 0.13706 h -8.220152 c -2.301374,0 -4.529069,0.064 -6.439118,-1.44097 -1.561091,-1.23001 -2.459593,-3.16113 -2.465941,-5.13516 -0.002,-0.5936 -0.07067,-1.49884 0.453928,-1.90779 1.896829,-1.47861 5.684438,-1.13702 7.903122,-0.98153 4.751989,0.33306 9.37627,1.61702 14.111259,2.09046 2.482077,0.24817 5.598362,0.3652 7.803112,-1.03049 0.77191,-0.48863 0.98013,-1.6934 -0.13308,-1.94139 -0.76873,-0.17125 -1.83974,0.52811 -2.600934,0.69844 -1.46909,0.32874 -3.158008,0.2857 -4.658083,0.18298 -4.698007,-0.3217 -9.28394,-1.71017 -13.974258,-2.15651 -2.345138,-0.22318 -4.522901,0.15082 -6.850126,0.25075 2.073884,-2.54572 6.285723,-1.91804 9.17917,-1.91804 H 107.4557 m 5.75411,0.0514 c 6.78213,-0.33841 9.08089,9.07007 3.42506,12.35221 -0.90417,0.52471 -1.97333,0.80664 -3.01406,0.87329 -6.71406,0.42999 -9.33522,-8.90068 -3.69907,-12.28266 0.99615,-0.59773 2.13294,-0.8852 3.28807,-0.94284 m 17.81032,-0.007 c 6.77231,-0.51341 9.23645,8.87813 3.69907,12.27632 -0.9388,0.57613 -2.05428,0.88582 -3.15105,0.95606 -6.47678,0.41479 -9.28162,-8.38484 -4.11008,-12.03794 1.04604,-0.73891 2.29161,-1.09812 3.56206,-1.19444 m -18.63234,2.3486 c -5.90138,1.11336 -3.27265,10.29589 2.46605,8.38041 1.43717,-0.4797 2.4742,-1.77706 2.7854,-3.23837 0.15781,-0.74103 0.0974,-1.80054 -0.86789,-1.89172 -1.1718,-0.11074 -1.08413,1.0018 -1.40079,1.75472 -0.52162,1.24019 -1.95708,1.82698 -3.11924,1.09676 -1.39442,-0.87615 -1.40816,-2.82005 10e-4,-3.69907 0.55842,-0.34822 1.39543,-0.24935 1.85662,-0.7292 1.18476,-1.2327 -0.77976,-1.85122 -1.72163,-1.67353 m 17.81033,0.008 c -5.71595,1.31174 -3.07881,10.26944 2.46605,8.40726 1.4409,-0.48391 2.54697,-1.64615 2.87494,-3.13668 0.17137,-0.77882 0.23125,-1.88988 -0.82043,-2.01773 -1.16912,-0.14211 -1.08901,1.00242 -1.40079,1.74372 -0.52167,1.24036 -1.95698,1.8268 -3.11924,1.09676 -1.40116,-0.8801 -1.41987,-2.81274 0.002,-3.69907 0.58474,-0.36463 1.51065,-0.26408 1.93538,-0.85404 0.96733,-1.34365 -1.02496,-1.74961 -1.93739,-1.54022 m -6.85012,0.47549 c -0.73256,2.68376 -1.26949,5.04643 0.12188,7.67214 0.53226,1.00445 1.31192,1.80088 1.93316,2.74005 h -6.16527 c 0.46536,-0.99814 1.38678,-1.73672 1.90303,-2.74005 1.36673,-2.65625 0.89383,-4.95446 0.15201,-7.67214 z"
       id="path3" /></g></svg>
