<?xml version="1.0" encoding="UTF-8" standalone="no"?>
<!-- Created with Inkscape (http://www.inkscape.org/) -->

<svg
   width="210mm"
   height="297mm"
   viewBox="0 0 210 297"
   version="1.1"
   id="svg1"
   xml:space="preserve"
   inkscape:version="1.4.2 (ebf0e940, 2025-05-08)"
   sodipodi:docname="oil.svg"
   xmlns:inkscape="http://www.inkscape.org/namespaces/inkscape"
   xmlns:sodipodi="http://sodipodi.sourceforge.net/DTD/sodipodi-0.dtd"
   xmlns="http://www.w3.org/2000/svg"
   xmlns:svg="http://www.w3.org/2000/svg"><sodipodi:namedview
     id="namedview1"
     pagecolor="#ffffff"
     bordercolor="#000000"
     borderopacity="0.25"
     inkscape:showpageshadow="2"
     inkscape:pageopacity="0.0"
     inkscape:pagecheckerboard="0"
     inkscape:deskcolor="#d1d1d1"
     inkscape:document-units="mm"
     inkscape:zoom="1.0015858"
     inkscape:cx="385.88806"
     inkscape:cy="563.10703"
     inkscape:window-width="1712"
     inkscape:window-height="965"
     inkscape:window-x="0"
     inkscape:window-y="39"
     inkscape:window-maximized="0"
     inkscape:current-layer="layer1" /><defs
     id="defs1" /><g
     inkscape:label="Слой 1"
     inkscape:groupmode="layer"
     id="layer1"><circle
       style="display:inline;fill:none;stroke:#000000;stroke-width:1.42435;stroke-dasharray:none;stroke-opacity:1"
       id="path2"
       cx="105.00094"
       cy="149.83115"
       r="39.287823"
       sodipodi:insensitive="true" /><path
       style="fill:#010101;stroke:none;stroke-width:0.452472"
       d="m 103.70048,124.71038 c -1.22953,0.16142 -2.49357,0.11981 -3.731482,0.27233 -3.759721,0.46323 -7.676038,1.37307 -10.916574,3.41526 -2.133016,1.34422 -4.165833,3.39812 -4.047498,6.10063 0.136547,3.11836 3.158829,5.18578 5.675058,6.44065 2.217185,1.10574 4.677551,1.75243 7.105701,2.19037 4.243555,0.76536 8.631835,0.81127 12.901405,0.24985 2.24893,-0.29573 4.44938,-0.83162 6.58964,-1.57669 2.25182,-0.78391 4.47231,-1.97295 6.10973,-3.73148 1.38552,-1.488 2.00604,-3.5213 1.35324,-5.47814 -0.20048,-0.60098 -0.52103,-1.16019 -0.89832,-1.66726 -0.55287,-0.74303 -1.25262,-1.39423 -1.99954,-1.93913 -3.88858,-2.83689 -9.02522,-3.85478 -13.73503,-4.1777 -1.42121,-0.0974 -2.98523,-0.28526 -4.40633,-0.0987 m -7.264483,7.61624 c 0.906745,-0.10698 1.979443,0.041 2.818461,0.39691 0.337662,0.14321 0.703997,0.33255 0.891862,0.66357 0.23125,0.40747 0.007,0.8208 -0.33614,1.07481 -0.557948,0.41366 -1.307345,0.57922 -1.9848,0.66051 -1.042695,0.1251 -2.190851,0.0679 -3.175729,-0.3241 -0.390361,-0.15537 -0.872714,-0.39583 -1.026817,-0.81577 -0.162121,-0.4418 0.161238,-0.8081 0.510759,-1.02994 0.696785,-0.44225 1.504203,-0.53181 2.302404,-0.62599 m -10.479911,7.72951 v 3.57269 c 0,0.57931 0.0727,1.21324 -0.01194,1.78635 -0.06848,0.46364 -0.441057,0.87213 -0.606326,1.30999 -0.405908,1.07542 -0.362191,2.20343 0.193983,3.21543 0.492055,0.89533 1.425794,1.50581 2.290029,2.00156 1.742017,0.99925 3.617291,1.7057 5.517832,2.33861 0.63908,0.21282 1.292151,0.40201 1.945136,0.56735 0.419125,0.10614 0.851932,0.1696 1.135583,0.53107 0.444386,0.56631 0.01783,1.3959 -0.659225,1.48832 -0.490642,0.067 -1.157577,-0.2319 -1.62756,-0.36545 -2.194163,-0.62345 -4.387398,-1.37036 -6.430857,-2.39209 -0.610113,-0.30506 -1.15488,-0.70355 -1.74665,-1.03334 v 4.40633 c 0,0.71262 0.07849,1.47612 -0.0073,2.18332 -0.07417,0.61128 -0.587644,1.21287 -0.757022,1.82604 -0.453676,1.64235 -0.01715,3.34063 0.998479,4.6842 1.917522,2.53669 5.252674,3.88808 8.221248,4.72948 6.780724,1.9219 14.335744,1.97169 21.118614,0.0226 3.12396,-0.8977 6.78783,-2.32309 8.61202,-5.18872 0.90044,-1.4145 1.06738,-3.01685 0.58032,-4.60481 -0.151,-0.4923 -0.58784,-0.96943 -0.65021,-1.46877 -0.0898,-0.71871 -0.007,-1.49845 -0.007,-2.22302 v -4.40632 c -2.49038,1.5371 -5.16429,2.61662 -7.97903,3.42546 -0.5565,0.15991 -1.28177,0.49121 -1.86574,0.41776 -0.52254,-0.0657 -0.88761,-0.64182 -0.77843,-1.14385 0.0812,-0.37359 0.39413,-0.60363 0.73873,-0.7134 0.69264,-0.22064 1.41131,-0.35857 2.10393,-0.58348 1.74854,-0.56779 3.47301,-1.16422 5.12086,-1.98814 0.86049,-0.43024 1.77277,-0.91214 2.45963,-1.59923 0.9845,-0.98482 1.27925,-2.57774 0.87388,-3.88871 -0.15995,-0.51727 -0.58502,-1.02796 -0.66189,-1.54817 -0.0847,-0.57309 -0.0119,-1.20706 -0.0119,-1.78635 v -3.57269 c -0.67714,0.35127 -1.25014,1.01109 -1.90544,1.42696 -1.51477,0.96134 -3.14476,1.72577 -4.84299,2.3044 -4.37414,1.49039 -9.1357,2.02912 -13.73503,1.82773 -3.969463,-0.17382 -7.929891,-0.69928 -11.670816,-2.12233 -1.365845,-0.51957 -2.704253,-1.14176 -3.929968,-1.94195 -0.682694,-0.44569 -1.312729,-1.12564 -2.024527,-1.49481 m 19.054381,7.59026 c 0.27165,0 0.66336,0.67097 0.82371,0.86512 0.77174,0.93437 1.50653,1.90005 2.19425,2.89785 1.68184,2.44014 3.65394,5.53456 2.07488,8.49509 -0.24282,0.45527 -0.56021,0.86605 -0.92472,1.23056 -0.46864,0.46865 -1.02939,0.8379 -1.62753,1.12024 -0.71223,0.33619 -1.55272,0.54321 -2.3421,0.54702 -3.04634,0.0147 -6.226067,-2.30874 -5.908061,-5.63689 0.19464,-2.03704 1.484771,-4.04575 2.636091,-5.67662 0.70833,-1.00337 1.43813,-1.98729 2.21701,-2.93755 0.16405,-0.20015 0.57866,-0.90482 0.85647,-0.90482 m -0.35726,4.19964 c -0.58473,1.00086 -1.19869,1.98254 -1.79428,2.97725 -0.39964,0.66743 -0.87066,1.43738 -0.973,2.22301 -0.16723,1.2837 0.52679,2.87271 1.85425,3.25512 -0.16863,-0.81481 -0.49857,-1.57951 -0.55217,-2.42149 -0.0519,-0.81574 0.22874,-1.72465 0.45005,-2.50089 0.24377,-0.85501 0.5652,-1.68673 0.81106,-2.54058 0.0781,-0.27122 0.30239,-0.71761 0.20409,-0.99242 z"
       id="path3" /></g></svg>
