<?xml version="1.0" encoding="UTF-8" standalone="no"?>
<!-- Created with Inkscape (http://www.inkscape.org/) -->

<svg
   width="210mm"
   height="297mm"
   viewBox="0 0 210 297"
   version="1.1"
   id="svg1"
   xml:space="preserve"
   inkscape:version="1.4.2 (ebf0e940, 2025-05-08)"
   sodipodi:docname="light.svg"
   xmlns:inkscape="http://www.inkscape.org/namespaces/inkscape"
   xmlns:sodipodi="http://sodipodi.sourceforge.net/DTD/sodipodi-0.dtd"
   xmlns="http://www.w3.org/2000/svg"
   xmlns:svg="http://www.w3.org/2000/svg"><sodipodi:namedview
     id="namedview1"
     pagecolor="#ffffff"
     bordercolor="#000000"
     borderopacity="0.25"
     inkscape:showpageshadow="2"
     inkscape:pageopacity="0.0"
     inkscape:pagecheckerboard="0"
     inkscape:deskcolor="#d1d1d1"
     inkscape:document-units="mm"
     inkscape:zoom="0.70822811"
     inkscape:cx="386.17501"
     inkscape:cy="631.15258"
     inkscape:window-width="1712"
     inkscape:window-height="965"
     inkscape:window-x="0"
     inkscape:window-y="39"
     inkscape:window-maximized="0"
     inkscape:current-layer="layer1" /><defs
     id="defs1" /><g
     inkscape:label="Слой 1"
     inkscape:groupmode="layer"
     id="layer1"><circle
       style="display:inline;fill:none;stroke:#000000;stroke-width:1.42435;stroke-dasharray:none;stroke-opacity:1"
       id="path2"
       cx="105.00094"
       cy="149.83115"
       r="39.287823"
       sodipodi:insensitive="true" /><path
       style="fill:#030303;stroke:none;stroke-width:1.33491"
       d="m 102.99184,127.88723 c -4.17187,0.75218 -6.67231,3.68269 -9.53623,6.54661 -5.61406,5.61404 -14.305415,11.98084 -17.494545,19.42567 -1.938296,4.5248 -1.064601,11.70065 3.720249,14.12802 5.964413,3.02576 16.388706,1.05931 22.957326,1.05931 2.32154,0 6.0104,0.69353 8.12346,-0.363 4.54979,-2.2749 8.76908,-8.40609 12.36179,-11.99878 3.26746,-3.26747 6.47695,-6.60753 9.87415,-9.73954 1.13284,-1.04439 2.84907,-2.972 1.51771,-4.53919 -1.29423,-1.52348 -3.14897,-0.5046 -4.32799,0.5426 -2.96677,2.63502 -5.67092,5.63249 -8.47666,8.43822 l -8.82984,8.82985 c -1.32607,1.32607 -2.78468,3.35903 -4.59151,4.02521 -4.2581,1.56994 -11.35132,0.21312 -15.89373,0.21312 -3.27529,0 -8.715649,1.07783 -11.221814,-1.48827 -2.47852,-2.53781 -1.861326,-7.65644 1.337562,-9.29941 3.95335,-2.03047 11.834432,-0.51453 16.241742,-0.51453 1.55895,0 3.92046,-0.43035 5.2453,0.56631 1.85595,1.39619 0.58904,3.47908 -1.36153,3.6513 -5.0159,0.44288 -10.18793,-0.5474 -15.185973,0.0861 -2.053793,0.26033 -4.33755,2.43054 -2.012064,4.22307 1.997593,1.53979 6.678417,0.65625 9.075947,0.65625 3.51515,0 7.96834,0.72143 11.30219,-0.55214 2.55073,-0.9744 4.4759,-3.57057 6.35749,-5.45216 l 11.30221,-11.3022 c 3.35891,-3.35892 11.28648,-10.92635 5.57179,-16.09894 -2.94543,-2.66602 -10.67073,-1.20756 -14.40163,-1.20756 -3.76501,0 -7.94499,-0.50492 -11.6554,0.16406 z"
       id="path3" /></g></svg>
