<?xml version="1.0" encoding="UTF-8" standalone="no"?>
<!-- Created with Inkscape (http://www.inkscape.org/) -->

<svg
   width="210mm"
   height="297mm"
   viewBox="0 0 210 297"
   version="1.1"
   id="svg1"
   xml:space="preserve"
   inkscape:version="1.4.2 (ebf0e940, 2025-05-08)"
   sodipodi:docname="water.svg"
   xmlns:inkscape="http://www.inkscape.org/namespaces/inkscape"
   xmlns:sodipodi="http://sodipodi.sourceforge.net/DTD/sodipodi-0.dtd"
   xmlns="http://www.w3.org/2000/svg"
   xmlns:svg="http://www.w3.org/2000/svg"><sodipodi:namedview
     id="namedview1"
     pagecolor="#ffffff"
     bordercolor="#000000"
     borderopacity="0.25"
     inkscape:showpageshadow="2"
     inkscape:pageopacity="0.0"
     inkscape:pagecheckerboard="0"
     inkscape:deskcolor="#d1d1d1"
     inkscape:document-units="mm"
     inkscape:zoom="0.70822811"
     inkscape:cx="418.65043"
     inkscape:cy="560.55386"
     inkscape:window-width="1712"
     inkscape:window-height="965"
     inkscape:window-x="0"
     inkscape:window-y="39"
     inkscape:window-maximized="0"
     inkscape:current-layer="layer1" /><defs
     id="defs1" /><g
     inkscape:label="Слой 1"
     inkscape:groupmode="layer"
     id="layer1"><circle
       style="display:inline;fill:none;stroke:#000000;stroke-width:1.42435;stroke-dasharray:none;stroke-opacity:1"
       id="path2"
       cx="105.00094"
       cy="149.83115"
       r="39.287823"
       sodipodi:insensitive="true" /><path
       style="fill:#241f21;stroke:none;stroke-width:1.68356"
       d="m 125.66638,121.25093 c -0.79447,5.89966 -3.86726,11.28636 -5.41658,16.96241 1.07458,0.30944 2.11083,0.85522 3.13591,1.30268 0.32663,0.14259 0.85463,0.44897 1.21018,0.24647 0.85429,-0.48652 1.13259,-3.34917 1.33851,-4.25744 1.12184,-4.94794 0.68115,-9.3225 0.017,-14.25412 h -0.28507 m -44.045284,2.35875 c -1.743363,0.37825 -2.235647,2.78974 -0.706548,3.75996 2.681689,1.70154 6.18707,2.69041 9.116485,3.91966 5.67086,2.37963 11.270047,4.93957 16.962417,7.26566 2.1044,0.85992 4.1645,1.8279 6.27183,2.68036 0.56632,0.22908 1.6177,0.93772 2.24151,0.72578 0.6829,-0.23203 1.89432,-3.20696 1.27615,-3.69595 -0.73395,-0.58058 -1.94421,-0.88385 -2.80496,-1.25218 l -5.70166,-2.42322 c -5.89326,-2.51465 -11.766377,-5.07568 -17.675117,-7.55512 -1.997284,-0.83811 -4.011279,-1.6608 -5.986739,-2.54881 -0.864629,-0.38866 -2.011223,-1.08923 -2.993368,-0.87614 m 36.633124,14.60366 -2.13812,4.98895 8.55248,3.56354 1.44685,-3.421 0.43237,-1.38626 -2.02176,-1.12295 -6.27182,-2.62228 m 8.98011,4.56132 -1.56795,3.70609 c 0.69356,0.39469 1.59946,0.887 2.42319,0.82312 1.57309,-0.12205 2.43169,-1.93058 1.5672,-3.23292 -0.49536,-0.7462 -1.59088,-1.09877 -2.42244,-1.29629 m -9.83536,1.85305 c -1.55305,4.00303 -3.82189,7.79301 -5.88776,11.54584 -0.75282,1.36759 -1.84307,2.66816 -2.37964,4.1337 4.27008,-1.35172 8.07753,-6.27345 10.45303,-9.83536 0.82212,-1.23268 1.81921,-2.55424 2.23316,-3.99114 l -4.41879,-1.85304 m -36.34804,7.55468 v 0.1426 h 25.22982 c -0.95173,-1.2922 -3.46328,-3.50398 -4.98894,-4.04825 -0.85389,-0.30461 -2.093877,-0.0854 -2.993367,-0.0854 h -6.27183 c -1.70744,0 -4.229294,-0.47131 -5.844195,0.0838 -1.878165,0.64575 -3.476891,2.81296 -5.131488,3.90724 m -0.855248,0.99779 v 10.54806 c 0,1.37129 -0.300046,3.07581 0.870206,4.07749 0.925916,0.79256 2.276994,0.62637 3.406034,0.62637 h 7.554691 c 0.24254,-1.64846 0.77959,-3.77233 2.28066,-4.70464 1.77705,-1.10369 4.6952,-0.56938 6.699437,-0.56938 0.31227,-2.12236 0.9345,-5.78666 2.99337,-6.86697 1.01847,-0.53437 2.16597,-0.40264 3.27846,-0.40264 v -2.70829 H 80.195682 m 40.766828,7.26961 -5.41658,2.13812 -0.1426,-0.7127 5.13149,-2.13812 c -0.41269,-0.78435 -0.77018,-1.77508 -1.44038,-2.37471 -0.79419,-0.71056 -2.78927,-0.95488 -3.77316,-0.49636 -0.91347,0.4257 -1.67806,1.45003 -2.48369,2.06508 -1.78329,1.36143 -3.80604,2.63395 -5.98674,3.22919 l 3.421,-5.41657 c -1.87566,0 -5.62678,-0.74405 -6.8629,1.00394 -1.13098,1.59933 -0.56711,4.69557 -1.93586,6.03711 -0.43505,0.42643 -1.477247,0.22856 -2.034387,0.22856 -1.71836,0 -4.45812,-0.53162 -5.56341,1.14253 -0.66061,1.00061 -0.84802,2.41828 -1.1576,3.56134 -0.37674,1.39107 -1.07898,2.97272 -1.11096,4.41877 -0.0179,0.80706 0.32543,1.54931 0.9957,2.01636 1.48904,1.0376 4.79318,0.40685 6.55119,0.40685 h 17.104957 7.69723 c 1.20895,0 2.44357,0.0397 3.15614,-1.14088 0.84371,-1.39793 -0.27003,-2.92724 -0.90672,-4.13316 -1.72898,-3.27475 -3.67647,-6.48052 -5.24278,-9.83535 m -19.38563,6.69944 v 0.85525 h -3.135917 v -0.85525 h 3.135917 m 17.10496,0 v 0.85525 h -7.12706 v -0.85525 h 7.12706 m -10.97568,4.98896 v 0.85525 h -3.56354 v -0.85525 z"
       id="path3" /></g></svg>
